<svg width="14" height="10" viewBox="0 0 14 10" fill="none" xmlns="http://www.w3.org/2000/svg">
<path d="M7.00065 2.99967C5.90598 2.99967 5.00065 3.90567 5.00065 4.99967C5.00065 6.09434 5.90598 6.99967 7.00065 6.99967C8.09465 6.99967 9.00065 6.09434 9.00065 4.99967C9.00065 3.90567 8.09465 2.99967 7.00065 2.99967Z" fill="#A6A6A6"/>
<path d="M7.00065 0.333008C1.93932 0.333008 0.418196 4.74434 0.404272 4.78901L0.333984 4.99967L0.403609 5.21034C0.418196 5.25501 1.93932 9.66634 7.00065 9.66634C12.062 9.66634 13.5831 5.25501 13.597 5.21034L13.6673 4.99967L13.5977 4.78901C13.5831 4.74434 12.062 0.333008 7.00065 0.333008ZM7.00065 8.33301C3.45248 8.33301 2.0779 5.76901 1.74503 4.99967C2.07923 4.22767 3.45447 1.66634 7.00065 1.66634C10.5488 1.66634 11.9234 4.23034 12.2563 4.99967C11.9221 5.77167 10.5468 8.33301 7.00065 8.33301Z" fill="#A6A6A6"/>
</svg>
